<svg width="51" height="51" viewBox="0 0 51 51" fill="none" xmlns="http://www.w3.org/2000/svg">
<path d="M25.5 50.75C39.3071 50.75 50.5 39.5571 50.5 25.75C50.5 11.9429 39.3071 0.75 25.5 0.75C11.6929 0.75 0.5 11.9429 0.5 25.75C0.5 39.5571 11.6929 50.75 25.5 50.75Z" fill="white"/>
<path d="M27.143 35.3021H22.949V26.3611H20.849V22.9161H22.949V20.8501C22.949 18.0411 24.13 16.3691 27.495 16.3691H30.295V19.8141H28.549C27.239 19.8141 27.149 20.2951 27.149 21.1941L27.143 22.9161H30.315L29.944 26.3611H27.144V35.3011L27.143 35.3021Z" fill="#0C0C0C"/>
</svg>
