<svg width="51" height="51" viewBox="0 0 51 51" fill="none" xmlns="http://www.w3.org/2000/svg">
<path d="M25.5 50C38.8929 50 49.75 39.1429 49.75 25.75C49.75 12.3571 38.8929 1.5 25.5 1.5C12.1071 1.5 1.25 12.3571 1.25 25.75C1.25 39.1429 12.1071 50 25.5 50Z" fill="white"/>
<path d="M29.153 35.8938H21.023C19.4342 35.892 17.9109 35.26 16.7874 34.1365C15.6639 33.013 15.0319 31.4897 15.03 29.9008V21.7708C15.0319 20.182 15.6639 18.6587 16.7874 17.5352C17.9109 16.4117 19.4342 15.7797 21.023 15.7778H29.154C30.7429 15.7797 32.2662 16.4117 33.3897 17.5352C34.5132 18.6587 35.1452 20.182 35.147 21.7708V29.9018C35.1449 31.4907 34.5127 33.0139 33.389 34.1372C32.2653 35.2605 30.7419 35.8922 29.153 35.8938ZM21.023 17.8008C19.9704 17.8019 18.9613 18.2205 18.217 18.9648C17.4727 19.7091 17.0541 20.7182 17.053 21.7708V29.9018C17.0541 30.9542 17.4726 31.9631 18.2167 32.7072C18.9608 33.4513 19.9697 33.8698 21.022 33.8708H29.153C30.2053 33.8698 31.2143 33.4513 31.9584 32.7072C32.7025 31.9631 33.121 30.9542 33.122 29.9018V21.7708C33.121 20.7185 32.7025 19.7096 31.9584 18.9655C31.2143 18.2214 30.2053 17.8029 29.153 17.8018L21.023 17.8008ZM25.088 31.0378C24.0596 31.0378 23.0542 30.7329 22.1991 30.1615C21.3439 29.5901 20.6774 28.778 20.2839 27.8278C19.8903 26.8776 19.7873 25.8321 19.9879 24.8234C20.1886 23.8147 20.6838 22.8881 21.4111 22.1609C22.1383 21.4336 23.0649 20.9384 24.0736 20.7377C25.0823 20.5371 26.1278 20.6401 27.078 21.0337C28.0282 21.4272 28.8403 22.0937 29.4117 22.9489C29.9831 23.804 30.288 24.8094 30.288 25.8378C30.2859 27.2163 29.7374 28.5377 28.7626 29.5125C27.7879 30.4872 26.4665 31.0357 25.088 31.0378ZM25.088 22.6568C24.4593 22.6568 23.8447 22.8433 23.3219 23.1926C22.7991 23.5419 22.3916 24.0384 22.151 24.6193C21.9104 25.2002 21.8475 25.8394 21.9701 26.456C22.0928 27.0727 22.3955 27.6391 22.8401 28.0837C23.2847 28.5283 23.8512 28.8311 24.4678 28.9537C25.0845 29.0764 25.7237 29.0135 26.3046 28.7728C26.8855 28.5322 27.382 28.1248 27.7313 27.602C28.0806 27.0792 28.267 26.4646 28.267 25.8358C28.266 24.993 27.9307 24.1851 27.3348 23.5891C26.7388 22.9932 25.9308 22.6579 25.088 22.6568ZM30.3 21.9188C30.0534 21.9188 29.8123 21.8457 29.6072 21.7087C29.4022 21.5717 29.2423 21.3769 29.148 21.149C29.0536 20.9212 29.0289 20.6704 29.077 20.4286C29.1251 20.1867 29.2439 19.9645 29.4183 19.7901C29.5927 19.6157 29.8149 19.4969 30.0568 19.4488C30.2986 19.4007 30.5494 19.4254 30.7772 19.5198C31.0051 19.6141 31.1999 19.774 31.3369 19.979C31.4739 20.1841 31.547 20.4252 31.547 20.6718C31.5468 21.0025 31.4153 21.3195 31.1815 21.5533C30.9477 21.7871 30.6307 21.9186 30.3 21.9188Z" fill="#0C0C0C"/>
</svg>
