<svg width="51" height="51" viewBox="0 0 51 51" fill="none" xmlns="http://www.w3.org/2000/svg">
<path d="M25.5 50.75C39.3071 50.75 50.5 39.5571 50.5 25.75C50.5 11.9429 39.3071 0.75 25.5 0.75C11.6929 0.75 0.5 11.9429 0.5 25.75C0.5 39.5571 11.6929 50.75 25.5 50.75Z" fill="white"/>
<path d="M34.887 19.9628C34.1779 20.2766 33.426 20.4829 32.656 20.5748C33.4664 20.0891 34.0729 19.3259 34.363 18.4268C33.6005 18.8794 32.7661 19.198 31.896 19.3688C31.363 18.8007 30.6716 18.4059 29.9114 18.2356C29.1513 18.0653 28.3575 18.1274 27.6331 18.4138C26.9087 18.7002 26.2871 19.1978 25.849 19.8418C25.4108 20.4859 25.1763 21.2468 25.176 22.0258C25.1756 22.3239 25.2091 22.6212 25.276 22.9118C23.7326 22.8338 22.2228 22.4322 20.8446 21.7331C19.4665 21.034 18.2506 20.053 17.276 18.8538C16.778 19.7087 16.6248 20.7213 16.8476 21.6853C17.0704 22.6493 17.6524 23.492 18.475 24.0418C17.8578 24.0218 17.2546 23.8537 16.716 23.5518V23.6008C16.716 24.4975 17.0261 25.3666 17.5939 26.0607C18.1617 26.7547 18.9521 27.231 19.831 27.4088C19.4974 27.4985 19.1534 27.5432 18.808 27.5418C18.5626 27.542 18.3178 27.5185 18.077 27.4718C18.3249 28.2439 18.808 28.9193 19.4587 29.4034C20.1094 29.8875 20.8951 30.1562 21.706 30.1718C20.3295 31.2511 18.6302 31.8365 16.881 31.8338C16.5712 31.8341 16.2616 31.8161 15.954 31.7798C17.7299 32.9211 19.7969 33.5269 21.908 33.5248C23.362 33.535 24.8035 33.2562 26.1488 32.7046C27.4941 32.153 28.7164 31.3396 29.7447 30.3116C30.773 29.2836 31.5867 28.0615 32.1387 26.7163C32.6906 25.3712 32.9698 23.9297 32.96 22.4758C32.96 22.3068 32.96 22.1408 32.949 21.9758C33.7093 21.4262 34.3655 20.7456 34.887 19.9658V19.9628Z" fill="#0C0C0C"/>
</svg>
